<svg width="33" height="22" viewBox="0 0 33 22" fill="none" xmlns="http://www.w3.org/2000/svg">
<g filter="url(#filter0_i_25_165)">
<path d="M10.9522 13.53C14.7166 13.53 17.7172 10.4748 17.7172 6.76498C17.7172 3.05515 14.662 0 10.9522 0C7.24235 0 4.18719 3.0006 4.18719 6.76498C4.18719 10.5294 7.24235 13.53 10.9522 13.53ZM10.9522 2.40048C13.3526 2.40048 15.2621 4.3645 15.2621 6.71042C15.2621 9.05634 13.2981 11.0204 10.9522 11.0204C8.5517 11.0204 6.64223 9.05634 6.64223 6.71042C6.64223 4.3645 8.5517 2.40048 10.9522 2.40048Z" fill="#5D0786"/>
<path d="M10.9522 15.2212C7.02412 15.2212 3.25974 16.8033 0.368255 19.7494C-0.122752 20.2404 -0.122752 21.0042 0.368255 21.4952C0.58648 21.7134 0.913818 21.8771 1.24116 21.8771C1.56849 21.8771 1.89583 21.7679 2.11406 21.4952C4.51453 19.0401 7.6788 17.6762 10.9522 17.6762C14.171 17.6762 17.3353 19.0401 19.7903 21.4952C20.2813 21.9862 21.0451 21.9862 21.5361 21.4952C22.0271 21.0042 22.0271 20.2404 21.5361 19.7494C18.6446 16.8579 14.8802 15.2212 10.9522 15.2212Z" fill="#5D0786"/>
<path d="M24.864 13.53C27.0463 13.53 28.8466 11.7296 28.8466 9.54737C28.8466 7.36512 27.0463 5.56476 24.864 5.56476C22.6818 5.56476 20.8814 7.36512 20.8814 9.54737C20.8268 11.7296 22.6272 13.53 24.864 13.53ZM24.864 7.96523C25.7369 7.96523 26.3916 8.67447 26.3916 9.49281C26.3916 10.3657 25.6823 11.0204 24.864 11.0204C24.0457 11.0204 23.3364 10.3112 23.3364 9.49281C23.2819 8.67447 23.9911 7.96523 24.864 7.96523Z" fill="#5D0786"/>
<path d="M32.611 18.3309C29.7195 15.6577 25.7369 14.5666 21.7543 15.6031C21.0997 15.7668 20.7178 16.4215 20.8814 17.0761C21.0451 17.7308 21.7543 18.1127 22.3545 17.949C25.5187 17.1307 28.683 17.949 30.9198 20.0767C31.138 20.295 31.4653 20.4041 31.7381 20.4041C32.0655 20.4041 32.3928 20.295 32.611 20.0222C33.1566 19.5857 33.102 18.8219 32.611 18.3309Z" fill="#5D0786"/>
</g>
<defs>
<filter id="filter0_i_25_165" x="0" y="0" width="33" height="25.877" filterUnits="userSpaceOnUse" color-interpolation-filters="sRGB">
<feFlood flood-opacity="0" result="BackgroundImageFix"/>
<feBlend mode="normal" in="SourceGraphic" in2="BackgroundImageFix" result="shape"/>
<feColorMatrix in="SourceAlpha" type="matrix" values="0 0 0 0 0 0 0 0 0 0 0 0 0 0 0 0 0 0 127 0" result="hardAlpha"/>
<feOffset dy="4"/>
<feGaussianBlur stdDeviation="2"/>
<feComposite in2="hardAlpha" operator="arithmetic" k2="-1" k3="1"/>
<feColorMatrix type="matrix" values="0 0 0 0 0 0 0 0 0 0 0 0 0 0 0 0 0 0 0.25 0"/>
<feBlend mode="normal" in2="shape" result="effect1_innerShadow_25_165"/>
</filter>
</defs>
</svg>
