<svg width="562" height="585" viewBox="0 0 562 585" fill="none" xmlns="http://www.w3.org/2000/svg">
<mask id="mask0_7_116" style="mask-type:luminance" maskUnits="userSpaceOnUse" x="0" y="12" width="561" height="561">
<circle cx="280.5" cy="292.5" r="280.5" fill="#D9D9D9"/>
</mask>
<g mask="url(#mask0_7_116)">
<path d="M0 295.5H561M0 172.5H561M1 49.4997H562M0 418.5H561M0 541.5H561M0 336.5H561M0 213.5H561M1 90.4997H562M0 459.5H561M0 377.5H561M0 254.5H561M1 131.5H562M0 500.5H561M281.5 -0.000244141V584M405.5 -0.000244141V584M530.5 0.999756V585M157.5 -0.000244141V584M32.5 -0.000244141V584M240.5 -0.000244141V584M364.5 -0.000244141V584M488.5 0.999756V585M115.5 -0.000244141V584M198.5 -0.000244141V584M322.5 -0.000244141V584M447.5 0.999756V585M74.5 -0.000244141V584" stroke="#C548FF" stroke-opacity="0.2"/>
</g>
</svg>
