<svg width="38" height="25" viewBox="0 0 38 25" fill="none" xmlns="http://www.w3.org/2000/svg">
<g clip-path="url(#clip0_41_9)">
<path d="M24.434 24.955H23.5144C23.4821 24.955 23.4498 24.9306 23.4498 24.8912V21.6689C23.4498 21.3088 23.6284 21.1269 23.9799 21.0312C24.5556 20.8737 24.9565 20.8361 25.3213 20.8361C26.5297 20.8361 27.0009 21.4476 27.0009 22.2991V24.8912C27.0009 24.9231 26.9762 24.955 26.9363 24.955H26.0281C25.9958 24.955 25.9635 24.9306 25.9635 24.8912V22.3873C25.9635 22.0084 25.7982 21.7121 25.2605 21.7121C25.0876 21.7121 24.909 21.7252 24.5385 21.819C24.5138 21.8246 24.4929 21.8509 24.4929 21.8752V24.8893C24.4986 24.9306 24.4739 24.955 24.434 24.955ZM29.4443 21.562C28.9199 21.562 28.595 21.9146 28.5361 22.4829C28.5304 22.5204 28.5608 22.5523 28.6007 22.5523H30.2936C30.3316 22.5523 30.3582 22.5204 30.3582 22.4886C30.3316 21.9728 30.058 21.562 29.4443 21.562ZM30.4665 24.9306C30.4532 24.9494 30.4342 24.955 30.4152 24.955H29.5906C28.3575 24.955 27.5196 24.306 27.5196 22.9237C27.5196 21.4664 28.4202 20.8174 29.469 20.8174C30.6128 20.8174 31.3595 21.4551 31.3595 22.8168C31.3595 23.1075 31.2246 23.2463 30.9244 23.2463H28.6045C28.5665 23.2463 28.5399 23.2782 28.5399 23.3157C28.6159 23.8953 29.0643 24.1222 29.6647 24.1222H30.8921C30.9434 24.1222 30.9681 24.1785 30.9434 24.216L30.4665 24.9306Z" fill="#5D0786"/>
<path d="M34.0765 24.9231L33.2975 23.6814C33.2728 23.6439 33.2139 23.6439 33.1949 23.6814L32.4083 24.9231C32.395 24.9419 32.376 24.955 32.357 24.955H31.3101C31.2588 24.955 31.2341 24.8987 31.2588 24.8612L32.5565 22.9443C32.5698 22.9256 32.5698 22.8993 32.5565 22.8749L31.2854 20.9693C31.2607 20.9318 31.2854 20.8755 31.3367 20.8755H32.3912C32.4102 20.8755 32.4292 20.8887 32.4425 20.9074L33.1968 22.0928C33.2215 22.1303 33.2804 22.1303 33.3051 22.0928L34.0214 20.9074C34.0347 20.8887 34.0537 20.8755 34.0727 20.8755H35.1196C35.1709 20.8755 35.1956 20.9318 35.1709 20.9693L33.9435 22.8355C33.9302 22.8543 33.9302 22.8806 33.9435 22.9049L35.2412 24.8668C35.2659 24.9043 35.2412 24.9606 35.1899 24.9606H34.1221C34.1069 24.955 34.0822 24.9437 34.0765 24.9231ZM37.9981 24.7843C38.0038 24.8162 37.9848 24.8481 37.9525 24.8537C37.582 24.9475 37.2875 24.9981 37.0006 24.9981C36.0487 24.9981 35.6079 24.488 35.6079 23.4901V20.0915C35.6079 20.0596 35.6269 20.0353 35.6592 20.0278L36.5541 19.8646C36.5921 19.859 36.6244 19.8833 36.6244 19.9284V20.8118C36.6244 20.8436 36.6491 20.8755 36.689 20.8755H37.8195C37.8518 20.8755 37.8841 20.8999 37.8841 20.9393V21.6014C37.8841 21.6333 37.8594 21.6652 37.8195 21.6652H36.689C36.6567 21.6652 36.6244 21.6895 36.6244 21.7289V23.5708C36.6244 23.9365 36.7593 24.1954 37.1811 24.1954C37.3597 24.1954 37.5763 24.1503 37.8138 24.0941C37.8518 24.0885 37.8841 24.1072 37.8898 24.1447L37.9981 24.7843Z" fill="#5D0786"/>
<path d="M30.5813 18.6224C30.3837 18.6224 30.1785 18.5774 29.9942 18.4892C29.3178 18.1685 29.029 17.3601 29.3615 16.6924L35.0672 5.01111C35.3921 4.34339 36.211 4.0583 36.8874 4.38653C37.5638 4.70726 37.8526 5.51565 37.5201 6.18336L31.8144 17.8647C31.5712 18.3448 31.0867 18.6224 30.5813 18.6224Z" fill="#5D0786"/>
<path d="M30.5812 18.6224C30.2677 18.6224 29.9542 18.5155 29.6996 18.3017L10.6597 2.37024C10.084 1.89009 10.0137 1.03856 10.5001 0.477753C10.9865 -0.0905566 11.8491 -0.159954 12.4172 0.320202L31.4571 16.2516C32.0328 16.7318 32.1031 17.5833 31.6167 18.1441C31.3469 18.4648 30.965 18.6224 30.5812 18.6224Z" fill="#5D0786"/>
<path d="M1.36305 22.7412C0.846246 22.7412 0.354146 22.4505 0.124246 21.9591C-0.189254 21.2839 0.110946 20.483 0.794945 20.1735L35.7188 4.37339C36.4028 4.06392 37.2141 4.36027 37.5276 5.03548C37.8411 5.7107 37.5409 6.51159 36.8569 6.82107L1.93305 22.6137C1.74685 22.7037 1.55495 22.7412 1.36305 22.7412Z" fill="#5D0786"/>
<path d="M1.36306 22.7412C1.15786 22.7412 0.946963 22.6962 0.756963 22.5968C0.0862631 22.263 -0.189237 21.4546 0.150863 20.7925L10.3292 0.742216C10.6674 0.0801262 11.4863 -0.191837 12.157 0.143897C12.8277 0.477756 13.1032 1.28614 12.7631 1.94823L2.58476 21.9985C2.34156 22.4712 1.86276 22.7412 1.36306 22.7412Z" fill="#5D0786"/>
</g>
<defs>
<clipPath id="clip0_41_9">
<rect width="38" height="25" fill="white"/>
</clipPath>
</defs>
</svg>
