<svg width="100" height="25" viewBox="0 0 100 25" fill="none" xmlns="http://www.w3.org/2000/svg">
<g clip-path="url(#clip0_41_18)">
<path d="M36.7225 11.8169C36.7225 5.29801 28.4974 0.0162656 18.3612 0.0162656C8.22506 0.0162656 0 5.32181 0 11.8169V12.5069C0 19.4065 7.18483 24.9975 18.3612 24.9975C29.6102 24.9975 36.7225 19.4065 36.7225 12.5069V11.8169Z" fill="#5D0786"/>
<path d="M36.0197 11.8153C36.0197 17.9297 28.1091 22.926 18.36 22.926C8.61089 22.926 0.700317 17.9535 0.700317 11.8153C0.700317 5.67702 8.61089 0.704567 18.36 0.704567C28.1091 0.704567 36.0197 5.67702 36.0197 11.8153Z" fill="#EFE7F3"/>
<path d="M17.0092 19.3228C16.2351 19.3228 15.6061 18.728 15.5819 17.9667C15.5819 17.8953 15.5819 17.7288 15.4368 17.7288C15.3642 17.7288 15.3158 17.7764 15.2674 17.8239C15.0981 17.9905 14.8804 18.1332 14.5659 18.1332C14.4207 18.1332 14.2756 18.1094 14.1062 18.0381C13.2837 17.705 13.2837 17.1578 13.3079 16.9437C13.3079 16.8723 13.3079 16.8247 13.2837 16.7771L13.2354 16.7295H13.1386C13.0902 16.7295 13.0418 16.7533 12.9934 16.7771C12.7515 16.9437 12.5338 17.015 12.2919 17.015C12.1709 17.015 12.0258 16.9912 11.9048 16.9437C10.8162 16.5392 10.913 15.54 10.9614 15.2307C10.9614 15.1593 10.9614 15.1117 10.913 15.0879L10.8404 15.0165L10.7678 15.0879C10.5501 15.2782 10.284 15.3972 9.99371 15.3972C9.36473 15.3972 8.8809 14.8976 8.8809 14.3028C8.8809 13.6842 9.38892 13.2084 9.99371 13.2084C10.5501 13.2084 11.0339 13.6128 11.1065 14.16L11.1549 14.4455L11.3242 14.1838C11.3484 14.16 11.7839 13.4701 12.6306 13.4939C12.7999 13.4939 12.9451 13.5177 13.1144 13.5652C13.7676 13.7556 13.8885 14.3504 13.9127 14.6121C13.9369 14.7548 14.0337 14.7548 14.0579 14.7548C14.1062 14.7548 14.1546 14.7072 14.1788 14.6835C14.2998 14.5645 14.5659 14.3504 15.0013 14.3504C15.1948 14.3504 15.4126 14.398 15.6303 14.4931C16.6947 14.9452 16.2109 16.2537 16.2109 16.2775C16.1141 16.4916 16.1141 16.5868 16.2109 16.6582L16.2593 16.6819H16.2835C16.3318 16.6819 16.3802 16.6582 16.477 16.6344C16.6221 16.5868 16.8399 16.5154 17.0334 16.5154C17.8317 16.5154 18.4849 17.1578 18.4849 17.9429C18.4607 18.6804 17.8075 19.3228 17.0092 19.3228ZM28.1856 12.9705C26.4438 11.4716 22.4281 8.02178 21.3395 7.23666C20.7105 6.78462 20.2992 6.52291 19.9122 6.42774C19.7428 6.38016 19.5009 6.33258 19.2106 6.33258C18.9445 6.33258 18.63 6.38016 18.3155 6.47533C17.614 6.68945 16.9124 7.23666 16.2351 7.78387L16.2109 7.80766C15.5819 8.30728 14.9287 8.80691 14.4207 8.92587C14.203 8.97345 13.9853 8.99724 13.7676 8.99724C13.2112 8.99724 12.7273 8.8307 12.5338 8.61658C12.5096 8.56899 12.5338 8.52141 12.6064 8.42624V8.40245L14.1304 6.78462C15.34 5.59504 16.4528 4.50062 19.0655 4.42924H19.1864C20.8072 4.42924 22.4281 5.14299 22.6216 5.23816C24.1457 5.9757 25.7181 6.33258 27.2905 6.33258C28.9355 6.33258 30.6289 5.92812 32.4191 5.1192C32.2256 4.95266 32.0078 4.78612 31.7901 4.64337C30.2177 5.30954 28.7178 5.64262 27.2905 5.64262C25.8149 5.64262 24.3392 5.28574 22.9119 4.61958C22.8393 4.57199 21.0492 3.76308 19.1864 3.76308H19.0413C16.8399 3.81066 15.6061 4.57199 14.7836 5.23816C13.9853 5.26195 13.2837 5.45229 12.6548 5.61883C12.0984 5.76158 11.6145 5.90433 11.1549 5.90433C10.9614 5.90433 10.6227 5.88053 10.5985 5.88053C10.0663 5.85674 7.35685 5.21437 5.22801 4.40545C5.01029 4.5482 4.79256 4.71474 4.59903 4.88129C6.84883 5.78537 9.58245 6.47533 10.4292 6.5467C10.6711 6.57049 10.913 6.59428 11.1791 6.59428C11.7597 6.59428 12.3161 6.42774 12.8725 6.28499C13.187 6.18983 13.5498 6.09466 13.9369 6.02329C13.8401 6.11845 13.7434 6.21362 13.6224 6.30879L12.0742 7.9742C11.9532 8.09316 11.6871 8.42624 11.8564 8.8307C11.929 8.99724 12.0742 9.13999 12.2677 9.28274C12.6306 9.52066 13.3079 9.6872 13.9127 9.6872C14.1546 9.6872 14.3723 9.66341 14.5659 9.61583C15.219 9.47308 15.8964 8.92587 16.6221 8.37866C17.2027 7.92662 18.0252 7.35562 18.6542 7.18908C18.8236 7.14149 19.0413 7.1177 19.2106 7.1177H19.3558C19.767 7.16528 20.1783 7.30803 20.8798 7.83145C22.162 8.78312 27.8227 13.6366 27.8711 13.6842C27.8711 13.6842 28.234 13.9935 28.2098 14.4931C28.1856 14.7786 28.0405 15.0403 27.7502 15.2069C27.5083 15.3496 27.2663 15.4448 27.0002 15.4448C26.6132 15.4448 26.3713 15.2782 26.3471 15.2545C26.3229 15.2307 24.3876 13.4939 23.686 12.8991C23.5651 12.8039 23.4683 12.7325 23.3473 12.7325C23.299 12.7325 23.2264 12.7563 23.2022 12.8039C23.0812 12.9467 23.2264 13.137 23.3715 13.256L25.6455 15.4924C25.6455 15.4924 25.9358 15.7541 25.96 16.0872C25.9842 16.4678 25.7907 16.7771 25.4278 17.015C25.1617 17.1816 24.8956 17.2767 24.6295 17.2767C24.2908 17.2767 24.0489 17.1102 23.9763 17.0864L23.6618 16.7771C23.057 16.2061 22.4523 15.6113 22.0168 15.2307C21.8959 15.1355 21.7991 15.0641 21.6781 15.0641C21.6298 15.0641 21.5814 15.0879 21.533 15.1117C21.4846 15.1593 21.4362 15.2782 21.5814 15.4448C21.6298 15.5162 21.7023 15.5637 21.7023 15.5637L23.3473 17.3957C23.3715 17.4195 23.686 17.8002 23.3957 18.1808H23.299L23.1538 18.3236C22.8635 18.5615 22.5006 18.5853 22.3555 18.5853C22.2829 18.5853 22.2103 18.5853 22.1378 18.5615C21.9684 18.5377 21.8717 18.4901 21.8233 18.4187L21.7991 18.3949C21.7023 18.2998 20.8798 17.4671 20.1783 16.8961C20.0815 16.8247 19.9847 16.7295 19.8638 16.7295C19.8154 16.7295 19.767 16.7533 19.7186 16.8009C19.5735 16.9437 19.7912 17.1578 19.8638 17.2529L21.2669 18.7756C21.2669 18.7994 21.2427 18.8232 21.2185 18.8708C21.1701 18.9422 21.0008 19.1087 20.4928 19.1801H20.2992C19.767 19.1801 19.2106 18.9184 18.9203 18.7756C19.0413 18.4901 19.1139 18.2046 19.1139 17.8953C19.1139 16.7533 18.1704 15.8254 17.0092 15.8254H16.9366C16.985 15.302 16.8882 14.3266 15.8722 13.8745C15.5819 13.7556 15.2916 13.6842 15.0013 13.6842C14.7836 13.6842 14.5659 13.7318 14.3482 13.8032C14.1304 13.3987 13.7918 13.0894 13.3079 12.9467C13.0418 12.8515 12.7999 12.8277 12.558 12.8277C12.1225 12.8277 11.7355 12.9467 11.3726 13.2084C11.0339 12.8039 10.5259 12.5422 9.99371 12.5422C9.53407 12.5422 9.07443 12.7325 8.73576 13.0418C8.30031 12.7087 6.55853 11.6143 1.8896 10.5913C1.67188 10.5437 1.13967 10.401 0.82518 10.3058C0.776798 10.5437 0.728415 10.8054 0.704224 11.0671C0.704224 11.0671 1.55092 11.2812 1.72026 11.305C6.48596 12.3519 8.0584 13.4225 8.3245 13.6366C8.22774 13.8507 8.17935 14.0887 8.17935 14.3028C8.17935 15.2782 8.97767 16.0634 9.96952 16.0634C10.0905 16.0634 10.1872 16.0634 10.284 16.0396C10.4292 16.7533 10.913 17.3005 11.6387 17.5622C11.8564 17.6336 12.0742 17.6812 12.2677 17.6812C12.4128 17.6812 12.5338 17.6574 12.6789 17.6336C12.8241 17.9667 13.1144 18.3949 13.7918 18.6567C14.0337 18.7518 14.2514 18.7994 14.4933 18.7994C14.6868 18.7994 14.8562 18.7756 15.0255 18.7042C15.34 19.4656 16.1141 19.989 16.9608 19.989C17.5172 19.989 18.0736 19.7749 18.4607 19.3704C18.7994 19.5607 19.5251 19.8938 20.2508 19.8938C20.3476 19.8938 20.4444 19.8938 20.517 19.87C21.2427 19.7749 21.5814 19.5132 21.7265 19.299C21.7507 19.2514 21.7749 19.2277 21.7991 19.1801C21.9684 19.2277 22.162 19.2752 22.3797 19.2752C22.7667 19.2752 23.1538 19.1325 23.5409 18.8708C23.9037 18.6091 24.1698 18.2284 24.2182 17.8953V17.8715C24.3634 17.8715 24.5085 17.8953 24.6295 17.8953C25.0407 17.8953 25.4278 17.7764 25.8149 17.5384C26.5406 17.0626 26.6857 16.444 26.6616 16.0396C26.7825 16.0634 26.9277 16.0872 27.0486 16.0872C27.4357 16.0872 27.7986 15.9682 28.1614 15.7541C28.6211 15.4686 28.8872 15.0403 28.9355 14.5169C28.9597 14.16 28.8872 13.827 28.6936 13.5177C29.9274 12.9942 32.7336 11.995 36.0236 11.2575C35.9994 10.9957 35.9752 10.7578 35.9268 10.5199C31.9111 11.3764 28.9355 12.6374 28.1856 12.9705Z" fill="#5D0786"/>
<path d="M97.3805 8.96367C97.0689 9.38793 96.6135 9.57649 96.0144 9.57649C95.4152 9.57649 94.9599 9.36436 94.6483 8.96367C94.3368 8.53941 94.169 7.95016 94.169 7.19591C94.169 6.44167 94.3368 5.82885 94.6483 5.42816C94.9599 5.0039 95.4392 4.81534 96.0144 4.81534C96.6135 4.81534 97.0689 5.02747 97.3805 5.42816C97.692 5.85242 97.8598 6.44167 97.8598 7.19591C97.8598 7.97373 97.716 8.56298 97.3805 8.96367ZM99.0101 4.32037C98.3631 3.51899 97.3565 3.1183 96.0144 3.1183C94.6723 3.1183 93.6897 3.51899 93.0186 4.32037C92.3716 5.12175 92.036 6.08812 92.036 7.19591C92.036 8.32728 92.3716 9.27008 93.0186 10.0715C93.6657 10.8728 94.6723 11.2735 96.0144 11.2735C97.3565 11.2735 98.3391 10.8728 99.0101 10.0715C99.6572 9.27008 99.9927 8.30371 99.9927 7.19591C99.9927 6.08812 99.6812 5.14532 99.0101 4.32037Z" fill="#5D0786"/>
<path d="M81.1986 8.01814C81.1746 8.70167 80.9829 9.1495 80.6234 9.40877C80.24 9.66804 79.8325 9.78589 79.4011 9.78589C79.1136 9.78589 78.8739 9.71518 78.6822 9.55019C78.4904 9.40877 78.3946 9.1495 78.3946 8.79595C78.3946 8.41883 78.5623 8.13599 78.8739 7.94743C79.0656 7.82958 79.3772 7.75887 79.8086 7.66459L80.2639 7.57031C80.5036 7.52317 80.6713 7.47603 80.8151 7.42889C80.9589 7.38175 81.0788 7.31104 81.1986 7.24033V8.01814ZM82.2291 3.65768C81.5581 3.3277 80.7912 3.16271 79.9524 3.16271C78.6342 3.16271 77.6996 3.49269 77.1723 4.17622C76.8368 4.60048 76.6451 5.16616 76.5971 5.82612H78.5623C78.6103 5.51971 78.7061 5.28401 78.8499 5.11902C79.0417 4.88332 79.4011 4.76547 79.8805 4.76547C80.3119 4.76547 80.6474 4.81261 80.8631 4.95403C81.0788 5.07188 81.1986 5.28401 81.1986 5.614C81.1986 5.87327 81.0548 6.06182 80.7672 6.17968C80.5994 6.25039 80.3358 6.29753 79.9524 6.34467L79.2573 6.43895C78.4665 6.53323 77.8673 6.69822 77.4599 6.93392C76.717 7.35818 76.3335 8.04171 76.3335 8.98451C76.3335 9.71518 76.5732 10.2809 77.0285 10.6816C77.4839 11.0822 78.083 11.2472 78.778 11.2708C83.2357 11.4594 83.1878 8.96094 83.2357 8.4424V5.56685C83.2357 4.62405 82.9002 3.98766 82.2291 3.65768Z" fill="#5D0786"/>
<path d="M72.08 4.88091C72.5833 4.88091 72.9668 5.0459 73.2064 5.35231C73.3742 5.58801 73.4701 5.84728 73.518 6.13012H75.7229C75.603 5.0459 75.2196 4.26809 74.5485 3.84383C73.9014 3.41956 73.0626 3.20743 72.0321 3.20743C70.8098 3.20743 69.8751 3.56098 69.1801 4.29166C68.4851 5.02233 68.1496 6.03584 68.1496 7.35576C68.1496 8.51069 68.4612 9.47706 69.0843 10.1842C69.7074 10.9148 70.69 11.2684 72.0081 11.2684C73.3263 11.2684 74.3328 10.8206 75.0039 9.94846C75.4353 9.40635 75.651 8.84067 75.7229 8.22785H73.5419C73.494 8.62854 73.3742 8.95852 73.1585 9.21779C72.9428 9.47706 72.5833 9.59491 72.08 9.59491C71.361 9.59491 70.8817 9.2885 70.6421 8.62854C70.4983 8.29856 70.4264 7.82716 70.4264 7.28505C70.4264 6.6958 70.4983 6.2244 70.6421 5.87085C70.8578 5.21089 71.361 4.88091 72.08 4.88091Z" fill="#5D0786"/>
<path d="M67.5419 3.18639C63.0363 3.18639 63.2999 7.12258 63.2999 7.12258V11.1059H65.337V7.35828C65.337 6.74546 65.4089 6.29763 65.5767 5.99122C65.8643 5.47268 66.4155 5.21341 67.2303 5.21341H67.47C67.5658 5.21341 67.6857 5.23698 67.8055 5.23698V3.18639H67.5419Z" fill="#5D0786"/>
<path d="M57.2646 5.27299C57.5522 4.99015 57.9596 4.82516 58.4868 4.82516C58.9662 4.82516 59.3736 4.96658 59.6851 5.24942C59.9967 5.53226 60.1884 5.93295 60.2364 6.45149H56.7373C56.8092 5.95652 56.977 5.55583 57.2646 5.27299ZM60.0207 9.02063C59.9248 9.13848 59.8529 9.25633 59.7331 9.32704C59.4455 9.56274 59.062 9.63345 58.5827 9.63345C58.1513 9.63345 57.7918 9.56274 57.4803 9.37418C56.977 9.06777 56.6894 8.54923 56.6415 7.77141H62.2974C62.2974 7.11145 62.2735 6.59291 62.2255 6.26293C62.1297 5.67368 61.914 5.13157 61.6024 4.68374C61.2429 4.1652 60.7876 3.78808 60.2603 3.55238C59.7091 3.31668 59.11 3.19883 58.4389 3.19883C57.2885 3.19883 56.3778 3.55238 55.6589 4.25948C54.9399 4.96658 54.5804 5.98009 54.5804 7.30001C54.5804 8.71422 54.9878 9.72773 55.7787 10.3641C56.5696 11.0005 57.4803 11.3069 58.5108 11.3069C59.757 11.3069 60.7396 10.9298 61.4347 10.1991C61.8181 9.79844 62.0338 9.42132 62.1536 9.0442L60.0207 9.02063Z" fill="#5D0786"/>
<path d="M53.8123 11.1092H51.943V6.46593C51.943 6.04167 51.7992 5.02816 50.5769 5.02816C49.7621 5.02816 49.1629 5.61741 49.1629 6.46593V11.1092H47.2936V6.46593C47.2936 6.04167 47.1737 5.02816 45.9275 5.02816C45.0887 5.02816 44.5135 5.61741 44.5135 6.46593V11.1092H42.6442V6.51307C42.6442 4.6039 43.9383 3.16613 45.9275 3.16613C46.9101 3.16613 47.725 3.56682 48.2522 4.22678C48.8034 3.56682 49.6183 3.16613 50.5769 3.16613C52.614 3.16613 53.8123 4.55676 53.8123 6.51307V11.1092Z" fill="#5D0786"/>
<path d="M88.9879 8.99172C88.7003 9.41598 88.2449 9.62811 87.6697 9.62811C87.0946 9.62811 86.6632 9.41598 86.3756 8.99172C86.088 8.56746 85.9442 7.95464 85.9442 7.24754C85.9442 6.58758 86.088 6.04547 86.3516 5.59764C86.6392 5.14981 87.0706 4.93768 87.6697 4.93768C88.0532 4.93768 88.4127 5.05553 88.7003 5.29123C89.1796 5.69192 89.4193 6.42259 89.4193 7.34182C89.4432 8.02535 89.2755 8.56746 88.9879 8.99172ZM91.4324 0.765786C91.4324 0.765786 89.3713 0.553656 89.3713 2.17999V4.34843C89.1317 3.99488 88.8441 3.71204 88.4846 3.49991C88.1251 3.28778 87.6937 3.1935 87.2384 3.1935C86.2078 3.1935 85.393 3.57062 84.7938 4.32486C84.1707 5.0791 83.8831 6.16332 83.8831 7.45967C83.8831 8.59103 84.1947 9.51026 84.8178 10.2409C85.4409 10.9716 86.6632 11.278 87.7416 11.278C91.5043 11.278 91.4803 8.09606 91.4803 8.09606L91.4324 0.765786Z" fill="#5D0786"/>
<path d="M79.3768 17.0128C79.6644 16.73 80.0719 16.5886 80.5751 16.5886C81.0545 16.5886 81.4379 16.73 81.7734 16.9893C82.085 17.2721 82.2767 17.6728 82.3007 18.1913H78.8256C78.9215 17.6964 79.0892 17.2957 79.3768 17.0128ZM82.109 20.7369C82.0131 20.8548 81.9412 20.949 81.8214 21.0433C81.5338 21.279 81.1264 21.3497 80.671 21.3497C80.2396 21.3497 79.9041 21.279 79.5925 21.0905C79.0892 20.784 78.8256 20.2419 78.7777 19.4877H84.3857C84.3857 18.8277 84.3618 18.3328 84.3138 17.9792C84.218 17.39 84.0262 16.8714 83.6907 16.4C83.3312 15.8815 82.8998 15.5044 82.3486 15.2687C81.8214 15.033 81.1983 14.9151 80.5272 14.9151C79.4008 14.9151 78.4661 15.2687 77.7711 15.9758C77.0761 16.6829 76.7166 17.6728 76.7166 18.9927C76.7166 20.4069 77.1001 21.3969 77.8909 22.0333C78.6818 22.6461 79.5925 22.9761 80.5991 22.9761C81.8453 22.9761 82.804 22.5989 83.499 21.8683C83.8824 21.4911 84.0981 21.0905 84.194 20.7133H82.109V20.7369Z" fill="#5D0786"/>
<path d="M76.3622 14.9569H76.2663C71.7607 14.9569 72.0243 18.8931 72.0243 18.8931V22.8057H74.0614V19.1288C74.0614 18.516 74.1333 18.0681 74.3011 17.7617C74.5887 17.2432 75.1399 16.9839 75.9547 16.9839H76.1944C76.2903 16.9839 76.4101 17.0075 76.5299 17.0075V14.9569H76.3622Z" fill="#5D0786"/>
<path d="M58.1943 13.9192V22.7815H60.1116V12.4814C60.1355 12.4814 58.1943 12.4107 58.1943 13.9192Z" fill="#5D0786"/>
<path d="M63.756 14.4729H61.7V12.4705H63.756V14.4729Z" fill="#5D0786"/>
<path d="M61.696 22.8049H63.756V15.1534H61.696V22.8049Z" fill="#5D0786"/>
<path d="M69.2709 22.7856H67.2106L64.5034 15.1517H66.6596L68.2168 20.5237L69.5824 15.835C69.7501 15.3638 70.0615 15.1517 70.5167 15.1517H72.026L69.2709 22.7856Z" fill="#5D0786"/>
</g>
<defs>
<clipPath id="clip0_41_18">
<rect width="100" height="25" fill="white"/>
</clipPath>
</defs>
</svg>
