<svg width="27" height="25" viewBox="0 0 27 25" fill="none" xmlns="http://www.w3.org/2000/svg">
<g clip-path="url(#clip0_41_3)">
<path d="M26.8137 24.8127C26.6895 24.9376 26.5518 25 26.3763 25C26.2008 25 26.0631 24.9376 25.9389 24.8127C25.8147 24.6878 25.7634 24.5493 25.7634 24.3728C25.7634 24.1964 25.8255 24.0579 25.9389 23.933C26.0631 23.8081 26.2008 23.7565 26.3763 23.7565C26.5518 23.7565 26.6895 23.819 26.8137 23.933C26.9379 24.0579 27 24.1964 27 24.3728C27 24.5357 26.9379 24.6878 26.8137 24.8127ZM26.001 23.9954C25.9011 24.0959 25.8498 24.2208 25.8498 24.3728C25.8498 24.5249 25.9011 24.6498 26.001 24.7502C26.1009 24.8507 26.2251 24.9131 26.3763 24.9131C26.5275 24.9131 26.6517 24.8615 26.7516 24.7502C26.8515 24.6498 26.9028 24.5249 26.9028 24.3728C26.9028 24.2208 26.8515 24.0959 26.7516 23.9954C26.6517 23.895 26.5275 23.8434 26.3763 23.8434C26.2386 23.8325 26.1117 23.8814 26.001 23.9954ZM26.3763 24.0199C26.4627 24.0199 26.5275 24.0334 26.5626 24.0443C26.6382 24.0687 26.6625 24.1312 26.6625 24.2208C26.6625 24.2832 26.6382 24.3212 26.6004 24.3593C26.5761 24.3728 26.5383 24.3837 26.5005 24.3973C26.5518 24.4108 26.5869 24.4217 26.6139 24.4597C26.6382 24.4977 26.6517 24.5357 26.6517 24.5602V24.7122H26.5383V24.6253C26.5383 24.5493 26.514 24.5004 26.4762 24.4733C26.4519 24.4597 26.4006 24.4488 26.3385 24.4488H26.2521V24.7122H26.1279V24.0334H26.379V24.0199H26.3763ZM26.5005 24.1339C26.4762 24.1203 26.4249 24.1095 26.3493 24.1095H26.2494V24.3484H26.3628C26.4141 24.3484 26.4492 24.3484 26.4762 24.3348C26.5275 24.3212 26.5518 24.2832 26.5518 24.2344C26.5491 24.1828 26.5248 24.1583 26.5005 24.1339Z" fill="#5D0786"/>
<path d="M22.2993 0H4.7871C2.1492 0 0 2.09872 0 4.66442V20.3139C0 22.9149 2.0763 24.962 4.7385 24.962H22.2642C24.9264 24.962 27.0027 22.9121 27.0027 20.3111V4.66442C27 2.04985 24.9372 0 22.2993 0ZM26.4627 20.3111C26.4627 22.6243 24.6132 24.4217 22.2507 24.4217H4.7385C2.376 24.4353 0.5373 22.6243 0.5373 20.3111V4.66442C0.5373 2.35122 2.4003 0.529431 4.7871 0.529431H22.3128C24.651 0.529431 26.4762 2.34036 26.4762 4.66442V20.3139H26.4627V20.3111Z" fill="#5D0786"/>
<path d="M26.4627 20.3111C26.4627 22.6243 24.6132 24.4217 22.2507 24.4217H4.73849C2.37599 24.4353 0.537292 22.6243 0.537292 20.3111V4.66442C0.537292 2.35122 2.40029 0.52943 4.78709 0.52943H22.3128C24.651 0.52943 26.4762 2.34036 26.4762 4.66442V20.3139H26.4627V20.3111Z" fill="#EFE7F3"/>
<path d="M21.6243 15.3481H19.386L18.9999 12.8964L17.5635 15.3236H15.3009L16.6752 16.7816L15.5493 19.2333L18.0252 17.7509L19.9638 19.2604L19.602 16.7843" fill="#F2EBF4"/>
<path d="M23.1876 14.8566H19.7991L19.2618 11.4629L17.2881 14.8322H16.9128C16.6887 14.4412 16.5996 13.8765 16.5996 13.5263C16.5996 12.948 16.6374 12.3833 16.6374 11.642C16.6374 10.6619 16.3512 10.1461 15.5871 9.95873V9.93429C17.199 9.70895 17.9361 8.62837 17.9361 7.11881C17.9361 4.96851 16.5105 4.50423 14.6475 4.50423H9.63631L7.51141 14.6069H10.1736L10.9485 10.9253H12.7224C13.6728 10.9253 14.0589 11.3896 14.0589 12.2828C14.0589 12.9616 13.9833 13.5018 13.9833 14.0177C13.9833 14.205 14.0211 14.6584 14.1588 14.8349L16.0839 16.8848L14.4207 20.4659L17.9712 18.3427L20.6199 20.3926L20.1312 17.0124L23.1876 14.8566ZM13.5243 9.03833H11.3994L11.9124 6.60024H13.8861C14.5854 6.60024 15.3225 6.78757 15.3225 7.64281C15.3252 8.73697 14.4882 9.03833 13.5243 9.03833ZM18.0252 17.7482L15.5493 19.2306L16.686 16.7925L15.3117 15.3345H17.5743L18.9999 12.9073L19.3887 15.3589H21.6378L19.6128 16.7789L19.9746 19.2686L18.0252 17.7482Z" fill="#5D0786"/>
</g>
<defs>
<clipPath id="clip0_41_3">
<rect width="27" height="25" fill="white"/>
</clipPath>
</defs>
</svg>
