<svg width="84" height="25" viewBox="0 0 84 25" fill="none" xmlns="http://www.w3.org/2000/svg">
<g clip-path="url(#clip0_41_56)">
<path d="M12.5968 0.0200043C5.63994 0.0200043 0 5.60758 0 12.5001C0 19.3929 5.63994 24.98 12.5968 24.98C19.5545 24.98 25.1938 19.3929 25.1938 12.5001C25.1938 5.60803 19.5545 0.0206004 12.5967 0.0206004L12.5968 0.0200043ZM18.3737 18.0198C18.3199 18.1071 18.2493 18.183 18.1659 18.2432C18.0825 18.3034 17.9879 18.3467 17.8876 18.3707C17.7873 18.3946 17.6832 18.3987 17.5813 18.3828C17.4793 18.3668 17.3816 18.3311 17.2936 18.2777C14.336 16.4878 10.6128 16.0825 6.22794 17.075C6.02491 17.1207 5.81185 17.0847 5.63559 16.9749C5.45932 16.8651 5.33429 16.6904 5.28795 16.4893C5.26488 16.3897 5.26185 16.2866 5.27906 16.1859C5.29626 16.0851 5.33335 15.9887 5.38821 15.9022C5.44306 15.8157 5.51461 15.7407 5.59874 15.6817C5.68287 15.6226 5.77795 15.5805 5.87851 15.5579C10.677 14.4717 14.793 14.9394 18.1134 16.9498C18.4835 17.1748 18.6008 17.6532 18.3737 18.0198ZM19.9155 14.6217C19.6312 15.0795 19.0265 15.224 18.5647 14.9424C15.1787 12.8804 10.0172 12.2832 6.01224 13.4877C5.49283 13.6431 4.94424 13.3531 4.7866 12.8394C4.71137 12.5924 4.73808 12.326 4.86085 12.0985C4.98363 11.871 5.19245 11.701 5.44154 11.6259C10.0163 10.2506 15.7037 10.9168 19.5921 13.2841C20.0539 13.5658 20.1998 14.1647 19.9155 14.6217ZM20.0479 11.0831C15.988 8.694 9.28964 8.47433 5.41341 9.63989C4.79096 9.82692 4.13271 9.47879 3.94408 8.8621C3.85338 8.56582 3.88516 8.24598 4.03243 7.97291C4.17971 7.69984 4.43042 7.4959 4.72943 7.40593C9.17908 6.06764 16.5761 6.32621 21.2503 9.07536C21.3836 9.15344 21.4999 9.25679 21.5928 9.37949C21.6856 9.50219 21.7531 9.64183 21.7914 9.79041C21.8297 9.939 21.838 10.0936 21.8159 10.2454C21.7938 10.3972 21.7416 10.5431 21.6625 10.6749C21.3316 11.2296 20.6065 11.4125 20.0485 11.0831H20.0479ZM34.2718 11.5409C32.0967 11.0271 31.7101 10.6664 31.7101 9.90859C31.7101 9.19265 32.39 8.71084 33.4024 8.71084C34.3831 8.71084 35.3549 9.07671 36.3747 9.8299C36.4048 9.8527 36.4439 9.8618 36.4815 9.85583C36.5004 9.85314 36.5186 9.84665 36.5349 9.83676C36.5512 9.82687 36.5653 9.81378 36.5763 9.79831L37.6383 8.31516C37.6592 8.28575 37.6681 8.24954 37.6631 8.21388C37.6581 8.17822 37.6395 8.1458 37.6112 8.12321C36.3973 7.15854 35.0315 6.68954 33.434 6.68954C31.0859 6.68954 29.4448 8.08581 29.4448 10.0836C29.4448 12.2259 30.8602 12.9844 33.3061 13.57C35.3864 14.0449 35.7384 14.4428 35.7384 15.154C35.7384 15.9424 35.0284 16.4327 33.8852 16.4327C32.6157 16.4327 31.5793 16.0079 30.421 15.0154C30.3921 14.9912 30.355 14.9789 30.3172 14.9811C30.2781 14.9841 30.2435 15.002 30.2194 15.0303L29.0281 16.4342C28.9784 16.4938 28.9845 16.5802 29.0416 16.6309C30.3894 17.8231 32.0471 18.452 33.8371 18.452C36.3672 18.452 38.0023 17.0824 38.0023 14.9618C38.0068 13.1723 36.9253 12.1813 34.2763 11.5429L34.2718 11.5409ZM43.7274 9.41575C42.6308 9.41575 41.7313 9.84376 40.9882 10.7208V9.73363C40.9883 9.6963 40.9735 9.66044 40.947 9.63392C40.9205 9.6074 40.8845 9.5924 40.8468 9.5922H38.8988C38.8206 9.5922 38.7574 9.65569 38.7574 9.73363V20.7024C38.7574 20.7799 38.8206 20.844 38.8988 20.844H40.8468C40.925 20.844 40.9882 20.7799 40.9882 20.7024V17.2404C41.7313 18.0646 42.6308 18.4684 43.7274 18.4684C45.7656 18.4684 47.8294 16.914 47.8294 13.9425C47.8324 10.9704 45.7686 9.4156 43.7289 9.4156L43.7274 9.41575ZM45.564 13.9425C45.564 15.455 44.6239 16.5117 43.2761 16.5117C41.9449 16.5117 40.9401 15.4073 40.9401 13.9425C40.9401 12.4776 41.9449 11.3736 43.2761 11.3736C44.6013 11.3734 45.564 12.4537 45.564 13.9425ZM53.1168 9.41575C50.4919 9.41575 48.4356 11.4181 48.4356 13.9749C48.4356 16.5042 50.4783 18.4848 53.0852 18.4848C55.7191 18.4848 57.7814 16.4893 57.7814 13.9425C57.7814 11.4044 55.7326 9.41605 53.1168 9.41605V9.41575ZM53.1168 16.5266C51.7208 16.5266 50.6679 15.4148 50.6679 13.9418C50.6679 12.4621 51.6847 11.3883 53.0852 11.3883C54.4901 11.3883 55.5491 12.4996 55.5491 13.9741C55.5491 15.4536 54.5262 16.5266 53.1168 16.5266ZM63.3861 9.5922H61.2426V7.42143C61.2427 7.40295 61.2391 7.38464 61.232 7.36755C61.2249 7.35045 61.2145 7.33489 61.2014 7.32178C61.1883 7.30866 61.1727 7.29823 61.1555 7.29109C61.1383 7.28394 61.1198 7.28023 61.1012 7.28015H59.1532C59.075 7.28015 59.0103 7.34364 59.0103 7.42143V9.5922H58.0747C57.9965 9.5922 57.9333 9.65569 57.9333 9.73363V11.3919C57.9333 11.4697 57.9965 11.5333 58.0747 11.5333H59.0103V15.8246C59.0103 17.5579 59.8813 18.4371 61.6006 18.4371C62.2985 18.4371 62.8777 18.2941 63.4237 17.9871C63.4688 17.9632 63.4959 17.9155 63.4959 17.8649V16.2851C63.4959 16.2374 63.4703 16.1912 63.4282 16.1659C63.4077 16.1529 63.3841 16.1455 63.3598 16.1445C63.3355 16.1434 63.3114 16.1488 63.2898 16.16C62.9153 16.3462 62.5528 16.4327 62.1466 16.4327C61.5224 16.4327 61.2426 16.151 61.2426 15.5221V11.5341H63.3861C63.4643 11.5341 63.5275 11.4706 63.5275 11.3926V9.73452C63.5281 9.71602 63.525 9.69758 63.5182 9.68033C63.5114 9.66307 63.5012 9.64736 63.4881 9.63413C63.475 9.62091 63.4594 9.61046 63.4421 9.6034C63.4248 9.59635 63.4063 9.59284 63.3876 9.59309L63.3861 9.5922ZM70.8531 9.6007V9.33408C70.8531 8.54974 71.1569 8.19996 71.8368 8.19996C72.243 8.19996 72.5694 8.27984 72.9349 8.40056C72.98 8.41457 73.0267 8.40756 73.0628 8.38088C73.0811 8.36779 73.096 8.35054 73.1062 8.33057C73.1164 8.31061 73.1216 8.28851 73.1214 8.26613V6.64021C73.1218 6.60985 73.1122 6.58019 73.094 6.55575C73.0758 6.5313 73.05 6.5134 73.0207 6.50475C72.6356 6.39104 72.1422 6.27435 71.4021 6.27435C69.6046 6.27435 68.6524 7.27791 68.6524 9.17551V9.58385H67.7168C67.6385 9.58385 67.5739 9.64734 67.5739 9.72514V11.3919C67.5739 11.4697 67.6385 11.5333 67.7168 11.5333H68.6524V18.151C68.6524 18.23 68.7171 18.2926 68.7953 18.2926H70.7418C70.8215 18.2926 70.8847 18.23 70.8847 18.151V11.5338H72.7033L75.4891 18.151C75.1732 18.8455 74.8618 18.9841 74.4376 18.9841C74.0947 18.9841 73.7322 18.8827 73.3636 18.6815C73.3287 18.6641 73.2884 18.6603 73.2508 18.6711C73.2132 18.6845 73.1816 18.7113 73.1666 18.7471L72.5062 20.1823C72.4746 20.2508 72.5017 20.3298 72.5679 20.3656C73.2568 20.7352 73.8781 20.8931 74.6467 20.8931C76.0848 20.8931 76.8805 20.2285 77.58 18.4431L80.9585 9.79384C80.9673 9.77246 80.9705 9.74923 80.9679 9.72629C80.9652 9.70335 80.9568 9.68143 80.9434 9.66254C80.9307 9.64364 80.9135 9.62814 80.8933 9.61743C80.8731 9.60672 80.8505 9.60112 80.8276 9.60114H78.7999C78.7382 9.60114 78.6841 9.63944 78.6645 9.69593L76.5872 15.5728L74.3128 9.69205C74.3026 9.6654 74.2845 9.64244 74.2609 9.6262C74.2372 9.60997 74.2092 9.60123 74.1804 9.60114H70.8531V9.6007ZM66.5239 9.5922H64.5759C64.4977 9.5922 64.433 9.65569 64.433 9.73363V18.151C64.433 18.23 64.4977 18.2926 64.5759 18.2926H66.5239C66.6021 18.2926 66.6668 18.23 66.6668 18.151V9.73423C66.6669 9.71563 66.6632 9.69721 66.656 9.68002C66.6488 9.66284 66.6383 9.64722 66.625 9.63408C66.6118 9.62094 66.596 9.61052 66.5786 9.60344C66.5613 9.59635 66.5427 9.59274 66.5239 9.5928V9.5922ZM65.5612 5.7593C64.7895 5.7593 64.1638 6.37807 64.1638 7.14245C64.1638 7.90727 64.7895 8.52679 65.5612 8.52679C66.3329 8.52679 66.9571 7.90727 66.9571 7.14245C66.9571 6.37822 66.3314 5.7593 65.5612 5.7593ZM82.6221 12.2987C81.852 12.2987 81.2518 11.6855 81.2518 10.9408C81.2518 10.1961 81.8595 9.57581 82.6297 9.57581C83.3998 9.57581 84 10.1889 84 10.933C84 11.6777 83.3923 12.2987 82.6221 12.2987ZM82.6297 9.71083C81.9272 9.71083 81.3962 10.2637 81.3962 10.9408C81.3962 11.6175 81.9242 12.163 82.6221 12.163C83.3246 12.163 83.8556 11.6105 83.8556 10.933C83.8556 10.2563 83.3276 9.71083 82.6297 9.71083ZM82.9335 11.0727L83.3216 11.6104H82.9937L82.6447 11.1171H82.3454V11.6104H82.0716V10.185H82.7124C83.0478 10.185 83.2674 10.3545 83.2674 10.6397C83.2689 10.8734 83.1321 11.0162 82.935 11.0727H82.9335ZM82.7019 10.4296H82.3454V10.8804H82.7019C82.8794 10.8804 82.9862 10.7941 82.9862 10.6548C82.9862 10.5081 82.8794 10.4296 82.7019 10.4296Z" fill="#5D0786"/>
</g>
<defs>
<clipPath id="clip0_41_56">
<rect width="84" height="25" fill="white"/>
</clipPath>
</defs>
</svg>
